<?xml version="1.0" standalone="no"?>
<!DOCTYPE svg PUBLIC "-//W3C//DTD SVG 20010904//EN"
 "http://www.w3.org/TR/2001/REC-SVG-20010904/DTD/svg10.dtd">
<svg version="1.0" xmlns="http://www.w3.org/2000/svg"
 width="128.000000pt" height="128.000000pt" viewBox="0 0 128.000000 128.000000"
 preserveAspectRatio="xMidYMid meet">
<metadata>
Created by potrace 1.10, written by Peter Selinger 2001-2011
</metadata>
<g transform="translate(0.000000,128.000000) scale(0.100000,-0.100000)"
fill="#000000" stroke="none">
<path d="M680 1158 c-132 -67 -132 -249 0 -315 56 -29 104 -29 160 0 132 66
132 248 0 315 -24 12 -60 22 -80 22 -20 0 -56 -10 -80 -22z m145 -18 c78 -35
111 -125 76 -205 -36 -82 -127 -114 -209 -73 -79 39 -111 131 -72 209 23 43
39 57 87 75 52 18 67 17 118 -6z"/>
<path d="M705 1055 c-15 -14 -25 -36 -25 -53 0 -40 41 -82 80 -82 38 0 80 42
80 80 0 37 -44 80 -82 80 -17 0 -39 -10 -53 -25z m97 -12 c22 -20 23 -61 1
-85 -34 -38 -103 -11 -103 40 0 54 62 81 102 45z"/>
<path d="M330 839 c-47 -9 -127 -54 -143 -80 -15 -24 0 -68 28 -81 21 -10 34
-7 86 20 34 18 77 32 95 32 40 0 111 -23 159 -51 l35 -21 -37 -71 c-45 -86
-139 -184 -206 -216 -33 -16 -76 -26 -134 -30 -89 -7 -113 -20 -113 -63 0 -38
36 -58 103 -58 121 0 229 46 325 137 l55 51 52 -23 c64 -28 130 -86 156 -137
11 -21 23 -65 28 -99 11 -85 55 -115 101 -69 24 24 26 65 5 144 -30 113 -104
202 -212 253 -32 15 -60 29 -62 30 -2 1 5 19 15 41 l19 39 59 -30 c75 -38 147
-57 219 -57 108 0 162 46 123 105 -16 24 -19 25 -99 19 -99 -7 -161 12 -265
84 -37 25 -82 56 -100 68 -78 54 -205 81 -292 63z m186 -35 c27 -9 93 -46 147
-82 172 -114 238 -135 376 -120 14 2 28 -4 35 -14 18 -29 -20 -58 -86 -65 -67
-7 -141 9 -224 48 -34 16 -69 29 -78 29 -11 0 -25 -18 -37 -45 -24 -53 -19
-61 54 -95 91 -43 175 -137 197 -222 5 -18 11 -56 14 -83 4 -43 2 -53 -14 -63
-33 -20 -60 4 -60 53 0 49 -47 150 -86 186 -37 34 -100 73 -141 87 -33 11 -38
8 -147 -90 -71 -64 -290 -112 -330 -72 -19 18 -19 20 -6 45 9 16 22 19 75 19
152 0 276 90 373 271 28 52 29 58 15 78 -22 32 -110 71 -175 78 -48 5 -64 2
-109 -21 -60 -30 -81 -32 -98 -12 -20 24 4 55 62 82 63 29 168 32 243 8z"/>
</g>
</svg>
